<svg xmlns="http://www.w3.org/2000/svg" viewBox="0 0 57.48 66.69"><defs><style>.cls-1{fill:#231f20;}</style></defs><title>Asset 1</title><g id="Layer_2" data-name="Layer 2"><g id="Layer_1-2" data-name="Layer 1"><path class="cls-1" d="M0,0H7.86A59.44,59.44,0,0,1,18.5.61,7.3,7.3,0,0,1,23,3.7q1.75,2.51,1.76,8c0,3.33-.42,6.56-1.24,7.7s-2.46,1.83-4.88,2.06c2.2.54,3.67,1.27,4.43,2.19a6.67,6.67,0,0,1,1.41,2.51,40.29,40.29,0,0,1,.28,6.32l.91,10.85-9.45.41L14.48,29.5c0-2.28-.19-3.7-.54-4.24s-1.31-.82-2.84-.82V66.69H0ZM11.1,7.3V17.8a4.88,4.88,0,0,0,2.62-.52c.51-.34.76-2.45.76-4.33V10.6a3.56,3.56,0,0,0-.73-2.66A4.07,4.07,0,0,0,11.1,7.3Z"/><path class="cls-1" d="M57.48,1.07,52.54,66.62H38.68q-1.91-9.84-3.36-22.39-.66,5.39-3.1,22.39H18.44l-4-37.12,10.21.92.74,9.4,1.14,13.4C27,45.77,28,13.15,29.64,1.07H41.16c.16,1.25.56,28.8,1.21,36.94L43.6,54.25c.63-10.33,1.66-43.3,3.1-53.18Z"/></g></g></svg>